<?xml version="1.0" encoding="UTF-8"?>
<svg width="225px" height="84px" version="1.1" viewBox="0 0 278 104" xmlns="http://www.w3.org/2000/svg" xmlns:xlink="http://www.w3.org/1999/xlink">
 <defs>
  <polygon id="path-1" points="0 0.724 100.06 0.724 100.06 103 0 103"/>
  <polygon id="path-3" points="0 103.28 277.78 103.28 277.78 1 0 1"/>
 </defs>
 <g id="Core-/-logo" fill="none" fill-rule="evenodd">
  <path d="m28.348 54.164c-2.427-3.04-6.859-3.538-9.899-1.109-3.041 2.426-3.539 6.858-1.112 9.899s6.861 3.537 9.901 1.109c3.041-2.426 3.537-6.858 1.11-9.899m-2.456 8.215c-2.109 1.684-5.184 1.339-6.87-0.77-1.683-2.11-1.338-5.185 0.771-6.869 2.111-1.685 5.186-1.34 6.869 0.769 1.684 2.111 1.34 5.185-0.77 6.87" fill="#007145"/>
  <path d="m51.223 16.314c-3.632 0-6.576 2.943-6.576 6.575s2.944 6.575 6.576 6.575c3.631 0 6.575-2.943 6.575-6.575s-2.944-6.575-6.575-6.575m0 11.464c-2.7 0-4.889-2.189-4.889-4.889s2.189-4.888 4.889-4.888 4.888 2.188 4.888 4.888-2.188 4.889-4.888 4.889" fill="#41AD4C"/>
  <path d="m42.913 69.403c-4.866-2.332-10.7-0.276-13.03 4.589-2.332 4.864-0.277 10.698 4.588 13.03s10.699 0.277 13.031-4.59c2.33-4.864 0.277-10.697-4.589-13.029m0.187 10.921c-1.167 2.435-4.085 3.462-6.52 2.297-2.435-1.166-3.463-4.086-2.296-6.52 1.167-2.435 4.086-3.463 6.52-2.298 2.434 1.167 3.463 4.087 2.296 6.521" fill="#41AD4C"/>
  <path d="m37.685 22.301c-6.42-5.087-15.747-4.008-20.834 2.411s-4.009 15.746 2.411 20.835c6.418 5.087 15.745 4.009 20.834-2.411 5.088-6.419 4.007-15.747-2.411-20.835m-5.381 14.658c-1.677 2.116-4.752 2.472-6.868 0.795-2.114-1.676-2.47-4.751-0.793-6.867 1.677-2.114 4.75-2.47 6.866-0.793 2.115 1.677 2.472 4.75 0.795 6.865" fill="#099"/>
  <path d="m115.13 87.752c-3e-3 -4e-3 -7e-3 -7e-3 -0.01-9e-3l-12.185-12.186c3.55-4.885 5.473-10.743 5.473-16.899 0-7.695-2.998-14.93-8.441-20.374-5.441-5.441-12.677-8.439-20.375-8.439-7.695 0-14.933 2.998-20.374 8.439-11.235 11.236-11.235 29.515 0 40.75 5.441 5.443 12.679 8.44 20.374 8.44 6.244 0 12.184-1.973 17.108-5.621l12.156 12.155c3e-3 1e-3 6e-3 5e-3 0.01 9e-3 1.73 1.729 4.534 1.729 6.264 0 1.73-1.731 1.73-4.535 0-6.265m-53.012-11.618c-9.634-9.637-9.634-25.313 0-34.949 4.668-4.667 10.873-7.238 17.474-7.238 6.602 0 12.808 2.571 17.475 7.238 4.668 4.669 7.239 10.874 7.239 17.473 0 6.602-2.571 12.807-7.239 17.476-4.667 4.667-10.873 7.238-17.475 7.238-6.601 0-12.806-2.571-17.474-7.238" fill="#3C3C3B"/>
  <g transform="translate(0 .276)">
   <mask id="mask-2" fill="white">
    <use xlink:href="#path-1"/>
   </mask>
   <path d="m83.348 87.775c-8.55 7.677-19.844 12.353-32.21 12.353-26.613 0-48.267-21.653-48.267-48.265 0-26.615 21.654-48.267 48.267-48.267 20.143 0 37.439 12.404 44.663 29.973 1.507 0.989 2.931 2.126 4.258 3.398-6.392-20.955-25.903-36.243-48.921-36.243-28.198 0-51.138 22.941-51.138 51.139 0 28.196 22.94 51.138 51.138 51.138 14.788 0 28.126-6.314 37.472-16.38-1.706 0.542-3.464 0.927-5.262 1.154" fill="#3C3C3B" mask="url(#mask-2)"/>
  </g>
  <path d="m102.26 51.107c-0.793-2.387-1.958-4.642-3.478-6.681 0.406 2.512 0.619 5.087 0.619 7.711 0 10.308-3.25 19.87-8.774 27.719 2.131-1.114 4.105-2.555 5.855-4.304 0.079-0.079 0.155-0.164 0.233-0.244 3.552-6.961 5.559-14.836 5.559-23.171 0-0.343-7e-3 -0.688-0.014-1.03" fill="#3C3C3B"/>
  <path d="m73.96 41.896c4.1 0 7.486-3.055 8.01-7.013-0.786-0.078-1.58-0.117-2.38-0.117-0.282 0-0.56 0.012-0.84 0.021-0.22 1.086-0.806 2.101-1.739 2.846-2.111 1.686-5.186 1.34-6.869-0.768-0.032-0.04-0.057-0.082-0.087-0.12-0.985 0.428-1.943 0.922-2.864 1.483 1.443 2.207 3.934 3.668 6.769 3.668" fill="#2B87C8"/>
  <path d="m70.394 30.48c0.159-0.172 0.329-0.336 0.517-0.486 1.421-1.134 3.277-1.343 4.854-0.719 1.258-0.161 2.534-0.251 3.825-0.251 0.299 0 0.596 0.013 0.894 0.02-1.469-2.007-3.844-3.313-6.524-3.313-3.948 0-7.234 2.832-7.941 6.574 1.407-0.726 2.87-1.337 4.375-1.825" fill="#2B87C8"/>
  <path d="m61.121 52.062c0-2.191-0.714-4.214-1.918-5.854-2.716 4.447-3.849 9.593-3.394 14.625 3.157-1.655 5.312-4.959 5.312-8.771" fill="#256B99"/>
  <path d="m50.033 56.798c-2.123-0.532-3.697-2.447-3.697-4.735 0-2.699 2.188-4.887 4.886-4.887 0.346 0 0.683 0.036 1.008 0.103 0.648-1.559 1.435-3.073 2.36-4.525-1.052-0.381-2.185-0.59-3.368-0.59-5.465 0-9.897 4.433-9.897 9.899 0 5.103 3.865 9.304 8.826 9.839-0.185-1.695-0.223-3.403-0.118-5.104" fill="#256B99"/>
  <path d="m69.838 80.476c0.626-1.594 0.617-3.431-0.188-5.096-1.53-3.165-5.336-4.491-8.503-2.961-0.27 0.131-0.522 0.286-0.766 0.447 0.292 0.395 0.602 0.779 0.921 1.159 0.156-0.099 0.319-0.192 0.49-0.273 2.43-1.175 5.351-0.158 6.526 2.273 0.601 1.239 0.626 2.608 0.187 3.806 0.437 0.23 0.882 0.443 1.333 0.645" fill="#099"/>
  <path d="m62.391 82.792c-1.092-0.359-2.055-1.099-2.676-2.148-0.366-0.333-0.727-0.676-1.082-1.031-0.369-0.369-0.729-0.748-1.075-1.133 0.041 0.824 0.246 1.654 0.627 2.444 1.257 2.601 4.054 3.957 6.768 3.509-0.88-0.501-1.734-1.047-2.562-1.641" fill="#099"/>
  <g fill="#3C3C3B">
   <polygon points="140.36 13.972 135.94 13.972 135.94 11.133 148.01 11.133 148.01 13.972 143.61 13.972 143.61 26.276 140.36 26.276"/>
   <path d="m157.43 19.602c0-1.521-0.795-1.998-2.043-1.998-1.112 0-1.999 0.636-2.498 1.294v7.378h-2.881v-15.141h2.881v5.606c0.705-0.84 2.067-1.702 3.86-1.702 2.406 0 3.564 1.316 3.564 3.452v7.785h-2.883v-6.674z"/>
   <path d="m168.15 15.038c3.269 0 5.493 2.451 5.493 6.038v0.637h-8.148c0.181 1.384 1.293 2.542 3.154 2.542 1.022 0 2.225-0.409 2.928-1.091l1.271 1.862c-1.089 0.999-2.814 1.521-4.517 1.521-3.336 0-5.856-2.247-5.856-5.765 0-3.179 2.339-5.744 5.675-5.744m-2.702 4.723h5.404c-0.07-1.044-0.796-2.43-2.702-2.43-1.793 0-2.565 1.339-2.702 2.43"/>
   <polygon points="137.97 33.748 156.61 33.748 156.61 38.563 143.58 38.563 143.58 44.289 156.33 44.289 156.33 49.104 143.58 49.104 143.58 60.081 137.97 60.081"/>
  </g>
  <mask id="mask-4" fill="white">
   <use xlink:href="#path-3"/>
  </mask>
  <g fill="#3C3C3B">
   <polygon points="160.4 60.081 165.41 60.081 165.41 33.748 160.4 33.748" mask="url(#mask-4)"/>
   <path d="m179.35 40.539c5.685 0 9.554 4.264 9.554 10.501v1.106h-14.173c0.315 2.408 2.25 4.421 5.486 4.421 1.778 0 3.871-0.71 5.094-1.895l2.211 3.237c-1.896 1.737-4.895 2.645-7.856 2.645-5.804 0-10.187-3.909-10.187-10.028 0-5.526 4.068-9.987 9.871-9.987m-4.699 8.212h9.397c-0.119-1.816-1.381-4.225-4.698-4.225-3.119 0-4.462 2.328-4.699 4.225" mask="url(#mask-4)"/>
   <path d="m216.19 48.04c0-1.777-0.79-3.041-2.842-3.041-1.777 0-3.238 1.186-3.948 2.211v12.871h-5.054v-12.041c0-1.777-0.79-3.041-2.842-3.041-1.737 0-3.198 1.186-3.948 2.251v12.831h-5.014v-19.068h5.014v2.486c0.79-1.145 3.315-2.96 6.237-2.96 2.803 0 4.58 1.302 5.291 3.473 1.104-1.737 3.631-3.473 6.553-3.473 3.514 0 5.605 1.855 5.605 5.764v13.778h-5.052v-12.041z" mask="url(#mask-4)"/>
   <path d="m226.3 35.564c0-1.658 1.381-3.001 3-3.001 1.658 0 3 1.343 3 3.001 0 1.657-1.342 3.001-3 3.001-1.619 0-3-1.344-3-3.001zm0.513 24.515h5.015v-19.067h-5.015v19.067z" mask="url(#mask-4)"/>
   <path d="m249.67 48.553c0-2.645-1.381-3.554-3.514-3.554-1.974 0-3.512 1.107-4.342 2.25v12.832h-5.015v-19.068h5.015v2.487c1.224-1.46 3.552-2.961 6.672-2.961 4.184 0 6.199 2.368 6.199 6.079v13.463h-5.015v-11.528z" mask="url(#mask-4)"/>
   <path d="m261.52 61.344c1.54 1.698 3.554 2.368 5.961 2.368 2.409 0 5.25-1.064 5.25-4.815v-1.935c-1.5 1.895-3.552 3.001-5.882 3.001-4.776 0-8.408-3.356-8.408-9.713 0-6.236 3.592-9.711 8.408-9.711 2.29 0 4.344 0.988 5.882 2.921v-2.447h5.055v17.765c0 7.264-5.606 9.042-10.305 9.042-3.277 0-5.804-0.75-8.211-2.844l2.25-3.632zm11.211-14.172c-0.828-1.264-2.645-2.171-4.302-2.171-2.844 0-4.818 1.974-4.818 5.249 0 3.278 1.974 5.252 4.818 5.252 1.657 0 3.474-0.947 4.302-2.172v-6.158z" mask="url(#mask-4)"/>
   <polygon points="138.51 67.183 157.14 67.183 157.14 71.998 144.11 71.998 144.11 77.723 156.86 77.723 156.86 82.54 144.11 82.54 144.11 93.516 138.51 93.516" mask="url(#mask-4)"/>
   <path d="m173.8 91.106c-1.303 1.461-3.592 2.882-6.712 2.882-4.184 0-6.159-2.289-6.159-6v-13.542h5.015v11.568c0 2.645 1.381 3.512 3.514 3.512 1.934 0 3.473-1.065 4.342-2.171v-12.909h5.015v19.068h-5.015v-2.408z" mask="url(#mask-4)"/>
   <path d="m196.66 81.987c0-2.646-1.381-3.555-3.514-3.555-1.974 0-3.512 1.107-4.342 2.251v12.831h-5.015v-19.067h5.015v2.487c1.224-1.461 3.552-2.961 6.672-2.961 4.185 0 6.197 2.368 6.197 6.079v13.462h-5.013v-11.527z" mask="url(#mask-4)"/>
   <path d="m219.76 91.067c-1.5 1.895-3.592 2.921-5.882 2.921-4.816 0-8.449-3.632-8.449-9.987 0-6.239 3.593-10.028 8.449-10.028 2.251 0 4.382 0.987 5.882 2.921v-9.713h5.053v26.333h-5.053v-2.447zm0-10.462c-0.83-1.264-2.645-2.173-4.342-2.173-2.844 0-4.818 2.251-4.818 5.569 0 3.275 1.974 5.526 4.818 5.526 1.697 0 3.512-0.908 4.342-2.172v-6.75z" mask="url(#mask-4)"/>
  </g>
  <path d="m82.403 46.101c-6.793-1.543-13.55 2.713-15.094 9.506s2.712 13.55 9.505 15.094c6.794 1.544 13.55-2.712 15.094-9.506 1.544-6.793-2.712-13.55-9.505-15.094m1.972 13.383c-0.598 2.633-3.217 4.282-5.849 3.683-2.633-0.597-4.282-3.216-3.684-5.849s3.217-4.281 5.85-3.684c2.632 0.599 4.281 3.217 3.683 5.85" fill="#31B7BC" mask="url(#mask-4)"/>
 </g>
</svg>
